{"title":"Inescapable.2012.480p.BRRip.XviD-DiN","uid":8296527,"size":1507441201,"categoryP":"video","categoryS":"movies","magnet":"?xt=urn:btih:4c5719ad18d3b92df9358e4f047296426f9727bc&amp;dn=Inescapable.2012.480p.BRRip.XviD-DiN&amp;tr=udp%3A%2F%2Ftracker.openbittorrent.com%3A80&amp;tr=udp%3A%2F%2Fopen.demonii.com%3A1337&amp;tr=udp%3A%2F%2Ftracker.coppersurfer.tk%3A6969&amp;tr=udp%3A%2F%2Fexodus.desync.com%3A6969","seeders":1,"leechers":0,"uploader":"sceneline","files":5,"time":1364155765,"description":"-\n\n      the fast  and The Hottest Private Tracker on the net\n\nPlease Seed back to make the speed Faster!!\n ............ NFO .............\n-http://www.imdb.com/title/tt1844203/\n\nGeneral\n\nComplete name                            : Inescapable.2012.480p.BRRip.XviD-DiN\n\nFormat                                   : AVI\n\nFormat/Info                              : Audio Video Interleave\n\nFile size                                : 1.40 GiB\n\nDuration                                 : 1h 32mn\n\nOverall bit rate                         : 2 163 Kbps\n\n\n\nVideo\n\nID                                       : 0\n\nFormat                                   : MPEG-4 Visual\n\nFormat profile                           : Advanced Simple@L5\n\nFormat settings, BVOP                    : 1\n\nFormat settings, QPel                    : No\n\nFormat settings, GMC                     : No warppoints\n\nFormat settings, Matrix                  : Default (H.263)\n\nMuxing mode                              : Packed bitstream\n\nCodec ID                                 : XVID\n\nCodec ID/Hint                            : XviD\n\nDuration                                 : 1h 32mn\n\nBit rate                                 : 1 707 Kbps\n\nWidth                                    : 720 pixels\n\nHeight                                   : 400 pixels\n\nDisplay aspect ratio                     : 16:9\n\nFrame rate                               : 24.000 fps\n\nColor space                              : YUV\n\nChroma subsampling                       : 4:2:0\n\nBit depth                                : 8 bits\n\nScan type                                : Progressive\n\nCompression mode                         : Lossy\n\nBits/(Pixel*Frame)                       : 0.247\n\nStream size                              : 1.11 GiB (79%)\n\nWriting library                          : XviD 1.2.1 (UTC 2008-12-04)\n\n\n\nAudio\n\nID                                       : 1\n\nFormat                                   : AC-3\n\nFormat/Info                              : Audio Coding 3\n\nMode extension                           : CM (complete main)\n\nFormat settings, Endianness              : Big\n\nCodec ID                                 : 2000\n\nDuration                                 : 1h 32mn\n\nBit rate mode                            : Constant\n\nBit rate                                 : 448 Kbps\n\nChannel(s)                               : 6 channels\n\nChannel positions                        : Front: L C R, Side: L R, LFE\n\nSampling rate                            : 48.0 KHz\n\nBit depth                                : 16 bits\n\nCompression mode                         : Lossy\n\nStream size                              : 298 MiB (21%)\n\nAlignment                                : Aligned on interleaves\n\nInterleave, duration                     : 64 ms (1.54 video frames)\n\nInterleave, preload duration             : 192 ms","torrent":{"xt":"urn:btih:4c5719ad18d3b92df9358e4f047296426f9727bc","amp;dn":"Inescapable.2012.480p.BRRip.XviD-DiN","amp;tr":["udp%3A%2F%2Ftracker.openbittorrent.com%3A80","udp%3A%2F%2Fopen.demonii.com%3A1337","udp%3A%2F%2Ftracker.coppersurfer.tk%3A6969","udp%3A%2F%2Fexodus.desync.com%3A6969"],"infoHash":"4c5719ad18d3b92df9358e4f047296426f9727bc","infoHashBuffer":{"type":"Buffer","data":[76,87,25,173,24,211,185,45,249,53,142,79,4,114,150,66,111,151,39,188]},"announce":[],"urlList":[]}}